<svg xmlns="http://www.w3.org/2000/svg" viewBox="0 0 54 32">
  <g style="fill: #8cc84b" transform="translate(-5,-16)">
    <path d="m 32,18 c -7.735,0 -14,6.265 -14,14 0,7.735 6.265,14 14,14 6.981983,0 12.748546,-5.110357 13.808594,-11.792969 C 45.273895,33.938828 44.76996,33.693383 44.5,33.634766 c -0.144378,-0.04245 -0.356838,-0.07562 -0.5625,-0.09961 -1.014788,-0.11828 -1.805335,0.02522 -2.419922,0.28125 0.113772,0.29617 0.200532,0.603281 0.212891,0.914063 0.02849,0.682124 -0.44036,1.18644 -0.929688,1.546875 -0.285775,0.210025 -0.590534,0.350999 -0.845703,0.435547 -0.204136,0.08615 -0.475393,0.175975 -0.667969,0.136718 -0.424337,-0.08622 -0.650011,-0.463332 -0.361328,-1.294921 0.156009,-0.449999 0.605854,-1.136403 1.332031,-1.726563 -0.16546,-0.340663 -0.349361,-0.686934 -0.443359,-1.005859 -0.185234,-0.628763 -0.242187,-1.009766 -0.242187,-1.009766 0,0 -0.598971,1.240581 -1.371094,2.369141 -0.04449,0.06557 -0.08832,0.131193 -0.132813,0.195312 0.151647,0.352439 0.270971,0.723835 0.28711,1.099609 0.02842,0.682052 -0.265878,1.19903 -0.75586,1.558594 -0.265275,0.195557 -0.550158,0.330015 -0.792968,0.416016 -0.155282,0.06783 -0.470869,0.17896 -0.919922,0.208984 -0.245646,0.01672 -0.481408,0.0023 -0.613281,-0.09766 -0.181528,-0.13718 -0.203375,-0.305858 -0.109376,-0.537109 0.07954,-0.196284 0.67505,-0.876109 1.173829,-1.470703 0.137763,-0.164153 0.269383,-0.332928 0.386718,-0.488282 l -0.0039,-0.0059 c 0,0 0.08977,-0.116759 0.236328,-0.320313 -0.182253,-0.392495 -0.412801,-0.801334 -0.521484,-1.171875 -0.185234,-0.62869 -0.240234,-1.007812 -0.240235,-1.007812 0,0 -0.6082,1.55527 -1.240234,2.796875 -0.489183,0.961573 -0.815679,1.543514 -0.96289,1.798828 l 0,0.0098 c 0,0 -0.02267,0.03732 -0.06055,0.0957 l -0.0293,0.04883 0,-0.0059 c -0.164078,0.2423 -0.532477,0.71875 -0.898438,0.71875 -1.00461,0 -0.634765,-2.041016 -0.634765,-2.041016 0,0 -0.294006,0.75576 -0.625,1.404297 -0.269708,0.528876 -0.515426,0.976562 -1.052735,0.976562 -0.154556,0 -0.400106,-0.004 -0.603515,-0.197265 C 29.626404,37.727522 29.274542,36.614097 29.34375,35.7519 29.40278,35.018743 29.515367,34.511592 29.669922,34.087838 29.394324,34.23803 29.07445,34.415021 28.75,34.605416 l -0.498047,0.294922 0.01563,0.0293 c 0.412633,0.798076 0.522681,2.54638 -0.376953,3.888671 -0.899635,1.343019 -2.573449,2.158786 -4.205078,1.705079 -0.526405,-0.146704 -1.322767,-1.23576 -0.636719,-2.753907 0.605064,-1.338657 3.02484,-2.60405 3.66211,-2.919922 l 0.173828,-0.0957 c -1.270684,-1.111768 -4.443907,-2.612223 -4.888672,-4.916015 -0.125403,-0.648538 0.179737,-2.199583 2.083984,-3.982422 1.601749,-1.499175 3.828572,-2.647204 5.886719,-3.378907 3.457869,-1.229174 7.111802,-0.503388 7.673828,1.701172 0.552648,2.168138 -1.327488,4.761083 -3.736328,5.69336 -2.150764,0.832317 -3.929616,0.70084 -4.660156,0.460937 -0.830353,-0.272834 -1.31676,-0.821603 -1.435547,-1.130859 -0.04667,-0.121114 -0.126931,-0.324449 0,-0.394531 0.07801,-0.04304 0.109861,-0.03325 0.318359,0.197265 0.19832,0.218819 0.994744,0.806759 2.509766,0.636719 3.975623,-0.445711 6.370065,-3.535967 5.613281,-5.199219 -0.529995,-1.164281 -3.593538,-1.690366 -7.421875,0.21875 -4.673303,2.330036 -4.926669,4.250947 -4.966797,4.980469 -0.109338,2.006822 2.474704,3.062202 3.873047,4.554687 l 0.05469,0.05859 c 0.261711,-0.144451 0.537359,-0.2965 0.808594,-0.445312 0.705022,-0.387407 1.36985,-0.750682 1.679688,-0.919922 0.492164,-0.715492 1.491801,-1.503906 2.21289,-1.503906 1.152623,0 0.75586,1.65625 0.75586,1.65625 0,0 0.02336,-0.07544 0.05469,-0.07617 0.03278,-8.18e-4 0.159769,-0.219611 0.515625,-0.08984 0.36596,0.134272 0.282904,0.391725 0.285156,0.417969 0.0044,0.05096 -0.431755,1.524043 -0.613281,2.46875 -0.0868,0.450799 -0.03731,0.779297 -0.01172,0.779297 0.03569,0 0.107955,-0.11506 0.175782,-0.238282 l 0,-0.0039 c 0,0 0.04941,-0.09197 0.134765,-0.259766 l 0.01758,-0.03516 c 0.100613,-0.196938 0.242971,-0.484842 0.40625,-0.84375 0.320016,-0.705386 1.541009,-3.429209 1.644531,-3.730468 0.103521,-0.30126 0.157878,-0.612548 0.208984,-0.746094 0.05031,-0.133474 0.481878,-0.234103 0.986328,-0.230469 0.504523,0.0037 0.555031,0.219181 0.558594,0.263672 0.0036,0.04449 -0.2388,0.642078 -0.294922,1.064453 -0.0554,0.422374 -0.003,0.631781 0.04297,0.986328 0.02988,0.231905 0.174282,0.525984 0.345703,0.859375 0.522043,-0.853544 1.441043,-2.485943 1.529297,-2.943359 0.06049,-0.312963 0.157951,-0.612549 0.208984,-0.746094 0.05103,-0.133546 0.481878,-0.234104 0.986328,-0.230469 0.50445,0.0036 0.554887,0.21918 0.558594,0.263672 0.0036,0.04449 -0.239599,0.64208 -0.294922,1.064453 -0.05547,0.421647 -0.0028,0.633735 0.04297,0.988282 0.03948,0.30344 0.275107,0.709872 0.507813,1.173828 0.634869,-0.313036 1.380942,-0.522909 2.255859,-0.527344 0.362326,-0.0021 0.697329,0.03823 1,0.101562 0.274714,0.05748 0.612674,0.127107 1.431641,0.609375 C 45.974174,32.926294 46,32.4663 46,32 46,24.265 39.735,18 32,18 Z m 0.486328,14.365234 c -0.184688,-0.01403 -0.502177,0.15006 -0.796875,0.480469 -0.244192,0.273562 -0.660711,0.980008 -0.855469,1.570313 -0.387115,1.172252 -0.219456,2.362058 0.05469,2.433593 0.320013,0.08382 0.846267,-1.482861 1.097656,-2.095703 0.157536,-0.383698 0.768893,-2.086836 0.634766,-2.314453 -0.02621,-0.04451 -0.0732,-0.06954 -0.134766,-0.07422 z m 8.119141,1.931641 c -0.406089,0.359636 -0.641414,0.735729 -0.744141,0.958984 -0.261785,0.568933 -0.27477,0.751599 -0.195312,0.808594 0.379919,-0.136453 1.008654,-0.466341 1.013672,-1.347656 8.16e-4,-0.131947 -0.02756,-0.271909 -0.07422,-0.419922 z m -13.125,0.96875 c -0.03787,0.02261 -0.07491,0.04526 -0.111328,0.06641 l 0.002,0.002 -0.04883,0.02734 c -0.188141,0.112391 -0.34229,0.206138 -0.447266,0.269531 -0.462212,0.289046 -1.158578,0.756377 -1.697266,1.265625 -0.88437,0.835152 -1.07009,1.994971 -0.603515,2.265625 0.431606,0.250153 1.439066,-0.04754 2.160156,-0.833984 0.756783,-0.825774 1.068364,-1.874182 0.746094,-3.0625 z m 9.820312,0.138672 c -0.156736,0.205734 -0.301177,0.387541 -0.425781,0.542969 -0.212932,0.264693 -0.755859,0.849609 -0.755859,0.849609 0,0 -0.07835,0.07332 -0.04492,0.09375 0.04521,0.02698 0.143571,-0.009 0.25,-0.06445 0.301115,-0.189596 0.977061,-0.661757 0.978515,-1.361328 0,-0.02043 -6.7e-4,-0.03939 -0.002,-0.06055 z" />
    <path d="M 32,17 C 44.615,17 55.354,29.129 57.72,32 55.354,34.871 44.615,47 32,47 19.385,47 8.646,34.871 6.28,32 8.646,29.129 19.385,17 32,17 m 0,-1 C 17.082,16 5,32 5,32 5,32 17.082,48 32,48 46.918,48 59,32 59,32 59,32 46.918,16 32,16 l 0,0 z" />
  </g>
</svg>
