<svg xmlns="http://www.w3.org/2000/svg" viewBox="0 0 60 69">
  <g fill="#8cc84b">
    <path d="M 30 0 L 0 17.25 L 0 51.75 L 30 69 L 60 51.75 L 60 17.25 L 30 0 z M 30 21.003906 C 43.311413 21.003906 54.091797 34.5 54.091797 34.5 C 54.091797 34.5 43.311413 47.996094 30 47.996094 C 16.688586 47.996094 5.9082031 34.5 5.9082031 34.5 C 5.9082031 34.5 16.688586 21.003906 30 21.003906 z " />
    <path d="m 30.000022,22.007719 c -6.901983,0 -12.492277,5.590294 -12.492277,12.492277 0,6.901983 5.590294,12.492277 12.492277,12.492277 6.230062,0 11.375598,-4.56 12.321484,-10.522931 -0.477115,-0.239319 -0.926779,-0.458331 -1.167666,-0.510635 -0.128828,-0.03788 -0.318408,-0.06748 -0.501921,-0.08888 -0.905502,-0.105542 -1.61091,0.0225 -2.15931,0.250961 0.101521,0.264274 0.178936,0.538311 0.189963,0.815623 0.02542,0.608663 -0.392935,1.058668 -0.829565,1.380286 -0.254998,0.187406 -0.526936,0.313198 -0.754625,0.388641 -0.182152,0.07687 -0.424196,0.157023 -0.596033,0.121993 -0.378638,-0.07693 -0.580008,-0.413433 -0.322415,-1.155464 0.139208,-0.401537 0.540607,-1.014019 1.188579,-1.540623 -0.147641,-0.303974 -0.311737,-0.612954 -0.395612,-0.897532 -0.165285,-0.561049 -0.216104,-0.901021 -0.216104,-0.901021 0,0 -0.534466,1.106978 -1.223436,2.113999 -0.0397,0.05851 -0.07881,0.117064 -0.118509,0.174277 0.135316,0.314484 0.241788,0.645882 0.256189,0.981187 0.02536,0.608599 -0.237243,1.069902 -0.674457,1.390742 -0.236706,0.174496 -0.490909,0.294475 -0.70757,0.371214 -0.138559,0.06052 -0.420159,0.159687 -0.820851,0.186478 -0.219192,0.01492 -0.429563,0.0021 -0.547234,-0.08715 -0.161979,-0.122406 -0.181473,-0.272918 -0.09759,-0.479265 0.07097,-0.175145 0.602351,-0.781757 1.047414,-1.312316 0.122927,-0.146475 0.240372,-0.297073 0.34507,-0.435697 l -0.0035,-0.0052 c 0,0 0.0801,-0.104185 0.210877,-0.285818 -0.162625,-0.350225 -0.368345,-0.715035 -0.465323,-1.04567 -0.165286,-0.560984 -0.214362,-0.899277 -0.214363,-0.899277 0,0 -0.542701,1.387776 -1.106668,2.495667 -0.436501,0.858017 -0.727835,1.377286 -0.859192,1.605105 l 0,0.0087 c 0,0 -0.02023,0.0333 -0.05403,0.08539 l -0.02615,0.04357 0,-0.0052 c -0.146407,0.216205 -0.475131,0.641344 -0.801681,0.641344 -0.896419,0 -0.566404,-1.821209 -0.566404,-1.821209 0,0 -0.262343,0.674369 -0.557691,1.253062 -0.240662,0.471919 -0.459918,0.871391 -0.939361,0.871391 -0.137912,0 -0.357017,-0.0036 -0.53852,-0.176021 -0.411787,-0.391223 -0.725756,-1.384739 -0.664001,-2.154081 0.05267,-0.654201 0.153135,-1.106734 0.291044,-1.484852 -0.245917,0.134017 -0.531342,0.291947 -0.820851,0.461837 l -0.444409,0.263161 0.01394,0.02615 c 0.368195,0.712127 0.466391,2.272148 -0.336357,3.469882 -0.802749,1.198383 -2.296302,1.926297 -3.752215,1.521451 -0.469714,-0.130904 -1.180312,-1.102674 -0.568148,-2.457326 0.539903,-1.194491 2.699083,-2.323607 3.267721,-2.605462 l 0.155108,-0.0854 c -1.133838,-0.992037 -3.965322,-2.330901 -4.362188,-4.386587 -0.111898,-0.578694 0.16038,-1.9627 1.85955,-3.553537 1.429249,-1.337722 3.416255,-2.362115 5.252752,-3.015017 3.085475,-1.096799 6.3459,-0.449177 6.847399,1.517964 0.49313,1.934643 -1.184525,4.248341 -3.333947,5.080217 -1.919138,0.742681 -3.506418,0.625363 -4.158283,0.411297 -0.740928,-0.243452 -1.174952,-0.733121 -1.280946,-1.009072 -0.04165,-0.108071 -0.113261,-0.289507 0,-0.352042 0.0696,-0.03841 0.09803,-0.02966 0.284074,0.176021 0.176962,0.195253 0.887615,0.719875 2.239478,0.568148 3.54747,-0.397711 5.684043,-3.155163 5.008761,-4.639292 -0.472917,-1.038895 -3.206534,-1.508323 -6.62258,0.195191 -4.170014,2.079104 -4.396094,3.793143 -4.4319,4.444101 -0.09756,1.790698 2.208192,2.732419 3.455941,4.064172 l 0.0488,0.05228 c 0.233527,-0.128894 0.479488,-0.264569 0.721514,-0.397354 0.629095,-0.345686 1.222323,-0.669838 1.498794,-0.820852 0.439161,-0.638437 1.331142,-1.341944 1.974574,-1.341944 1.028492,0 0.674458,1.477882 0.674458,1.477882 0,0 0.02084,-0.06731 0.0488,-0.06797 0.02925,-7.31e-4 0.142563,-0.195961 0.460096,-0.08017 0.326547,0.119812 0.252436,0.349539 0.254446,0.372957 0.0039,0.04547 -0.385257,1.359911 -0.547234,2.202879 -0.07745,0.402251 -0.0333,0.695371 -0.01046,0.695371 0.03185,0 0.09633,-0.102663 0.156851,-0.212621 l 0,-0.0035 c 0,0 0.04409,-0.08207 0.120252,-0.231791 l 0.01568,-0.03137 c 0.08978,-0.175729 0.216805,-0.432627 0.362499,-0.752883 0.285552,-0.62942 1.375051,-3.059902 1.467424,-3.328717 0.09237,-0.268816 0.140876,-0.54658 0.186478,-0.665744 0.04489,-0.1191 0.429982,-0.208891 0.880106,-0.205649 0.450189,0.0033 0.495257,0.195577 0.498436,0.235276 0.0032,0.0397 -0.213082,0.572931 -0.26316,0.949818 -0.04943,0.376886 -0.0027,0.563741 0.03834,0.880106 0.02666,0.20693 0.155513,0.469338 0.308473,0.766824 0.465822,-0.761621 1.28585,-2.21822 1.3646,-2.626375 0.05397,-0.279259 0.140941,-0.546581 0.186478,-0.665743 0.04553,-0.119164 0.429982,-0.208893 0.880105,-0.205649 0.450124,0.0032 0.495129,0.195576 0.498437,0.235275 0.0032,0.0397 -0.213796,0.572932 -0.26316,0.949818 -0.0495,0.376238 -0.0025,0.565486 0.03834,0.881849 0.03523,0.270762 0.24548,0.633423 0.453124,1.047414 0.566497,-0.279324 1.232223,-0.466594 2.012915,-0.470552 0.323307,-0.0019 0.622232,0.03411 0.892306,0.09062 0.245129,0.05129 0.546692,0.113419 1.277461,0.543749 0.03968,-0.405573 0.06273,-0.816028 0.06273,-1.23211 0,-6.901983 -5.590294,-12.492277 -12.492277,-12.492277 z m 0.433953,12.818178 c -0.164798,-0.01253 -0.448095,0.133899 -0.711056,0.428725 -0.217894,0.2441 -0.589556,0.874466 -0.76334,1.401199 -0.345424,1.046006 -0.195821,2.107677 0.0488,2.171507 0.285549,0.0748 0.755129,-1.323164 0.979445,-1.870007 0.14057,-0.342375 0.686088,-1.862095 0.566406,-2.065198 -0.02339,-0.03971 -0.06532,-0.06205 -0.120253,-0.06623 z m 7.244754,1.723613 c -0.362356,0.320906 -0.572337,0.656496 -0.664,0.855707 -0.233593,0.507662 -0.245179,0.670656 -0.174279,0.721513 0.339004,-0.121758 0.900027,-0.416118 0.904506,-1.202521 7.28e-4,-0.117737 -0.0246,-0.242626 -0.06623,-0.374699 z m -11.71151,0.864421 c -0.03379,0.02018 -0.06684,0.04038 -0.09934,0.05926 l 0.0017,0.0017 -0.04357,0.02439 c -0.167879,0.100287 -0.305427,0.183938 -0.399098,0.240503 -0.412434,0.257917 -1.033806,0.674919 -1.514479,1.129325 -0.789129,0.745211 -0.954848,1.780123 -0.53852,2.021629 0.385125,0.223213 1.284086,-0.04242 1.927519,-0.744168 0.675282,-0.736843 0.953307,-1.672343 0.665744,-2.732686 z m 8.762719,0.123738 c -0.139856,0.183578 -0.268742,0.345805 -0.379927,0.484494 -0.19,0.236187 -0.674457,0.75811 -0.674457,0.75811 0,0 -0.06991,0.06543 -0.04008,0.08365 0.04034,0.02407 0.128108,-0.008 0.223076,-0.05751 0.268686,-0.169177 0.871837,-0.590489 0.873135,-1.214721 0,-0.01823 -5.99e-4,-0.03515 -0.0017,-0.05403 z" />
  </g>
</svg>
